<?xml version="1.0" encoding="UTF-8"?>
<svg version="1.1" xmlns="http://www.w3.org/2000/svg" width="323" height="350">
<path d="M0 0 C3.39009442 0.5848799 5.91325276 2.08873281 8.83416748 3.86334229 C9.74714096 4.40799637 9.74714096 4.40799637 10.67855835 4.96365356 C12.60793691 6.11977287 14.52162102 7.29933963 16.43572998 8.48052979 C17.71079975 9.25037099 18.98683601 10.01861378 20.26385498 10.78521729 C23.87366187 12.95781973 27.4679379 15.15490562 31.06072998 17.35552979 C36.11703869 20.44380341 41.18856068 23.44975955 46.40447998 26.26177979 C53.66913554 30.18530684 60.68923413 34.50413047 67.74432373 38.78912354 C73.55486332 42.30130383 79.40332056 45.68744583 85.3805542 48.90777588 C98.23098493 55.84920913 110.8810794 63.18845969 123.49822998 70.54302979 C124.93742798 71.37169556 124.93742798 71.37169556 126.40570068 72.21710205 C127.71800659 72.98751831 127.71800659 72.98751831 129.05682373 73.77349854 C129.83211426 74.22491211 130.60740479 74.67632568 131.40618896 75.14141846 C131.9521875 75.5420752 132.49818604 75.94273193 133.06072998 76.35552979 C133.06072998 77.01552979 133.06072998 77.67552979 133.06072998 78.35552979 C133.72072998 78.35552979 134.38072998 78.35552979 135.06072998 78.35552979 C140.3570639 85.16580642 139.63271607 92.6660885 139.59417725 100.89434814 C139.60124085 102.47844749 139.60998772 104.06254008 139.62028503 105.6466217 C139.64273975 109.93597485 139.63984851 114.22495833 139.63096356 118.51434779 C139.62584439 122.10029896 139.63315379 125.68618123 139.64043564 129.2721253 C139.65742227 137.73415177 139.65388137 146.19599785 139.637146 154.65802002 C139.62022501 163.37699549 139.63606155 172.09547028 139.66836888 180.81439108 C139.69509088 188.31102345 139.70233377 195.80750023 139.6938538 203.30417544 C139.68893227 207.77686557 139.69109809 212.24925452 139.71164131 216.72190666 C139.73003965 220.92875271 139.72398963 225.13488037 139.69944191 229.34168816 C139.69444714 230.88154749 139.69788913 232.42146196 139.71059036 233.96127701 C139.8167149 247.93754638 139.8167149 247.93754638 135.52291775 253.96105289 C133.84453266 255.56171546 132.17536424 256.42747988 130.06072998 257.35552979 C130.06072998 258.01552979 130.06072998 258.67552979 130.06072998 259.35552979 C129.45229248 259.68424072 128.84385498 260.01295166 128.21697998 260.35162354 C114.75611445 267.65612262 101.48034577 275.25230801 88.26361084 282.98809814 C81.67751615 286.83975747 75.06856243 290.64750369 68.43572998 294.41802979 C60.16053158 299.12291551 51.95266164 303.9342722 43.78094482 308.81671143 C39.48638333 311.37330865 35.17139091 313.85441113 30.76776123 316.21881104 C26.55541509 318.49454889 22.44380637 320.90668766 18.36151123 323.40631104 C17.20331453 324.11139971 16.04511136 324.81647777 14.88690186 325.52154541 C13.1187933 326.59886723 11.35374218 327.68015178 9.59564209 328.77374268 C-4.34824339 337.42836932 -4.34824339 337.42836932 -13.50177002 335.67193604 C-17.24876672 334.23700662 -20.56042701 332.42413903 -23.93927002 330.29302979 C-25.25688888 329.48298839 -26.57459991 328.67309692 -27.89239502 327.86334229 C-28.56077393 327.44858643 -29.22915283 327.03383057 -29.91778564 326.60650635 C-33.15911005 324.60064327 -36.42331919 322.63344444 -39.68927002 320.66802979 C-40.25387939 320.32441406 -40.81848877 319.98079834 -41.40020752 319.62677002 C-44.91782279 317.50304995 -48.48625862 315.50006717 -52.09942627 313.54302979 C-58.34306185 310.1585244 -64.48488341 306.60799341 -70.62677002 303.04302979 C-77.64413814 298.97828154 -84.6641988 294.92200689 -91.75177002 290.98052979 C-99.43903535 286.69242418 -107.03117453 282.24065545 -114.62677002 277.79302979 C-115.23888336 277.43517395 -115.8509967 277.07731812 -116.48165894 276.70861816 C-124.07565951 272.26660135 -131.60643043 267.74319132 -139.06158447 263.0713501 C-142.51377127 261.01298335 -146.04942397 259.28441699 -149.72052002 257.65631104 C-152.7137108 255.90150024 -154.68875137 254.00551891 -156.93927002 251.35552979 C-157.56568241 248.30233002 -157.56568241 248.30233002 -157.56745911 244.82757568 C-157.57455349 244.18571367 -157.58164788 243.54385165 -157.58895725 242.88253927 C-157.60650953 240.73945679 -157.58845005 238.5981949 -157.57037354 236.45513916 C-157.5755135 234.91572749 -157.58279537 233.37632171 -157.59205627 231.83692932 C-157.61056901 227.66118129 -157.59763288 223.48607186 -157.57796597 219.31035042 C-157.56157693 214.93913152 -157.57039272 210.56795299 -157.57548523 206.19671631 C-157.58000591 198.85615848 -157.56413802 191.51585548 -157.53619385 184.175354 C-157.50414197 175.6904347 -157.50415771 167.20597502 -157.52140862 158.72102308 C-157.53727607 150.55655629 -157.53053877 142.3922579 -157.5134716 134.22779846 C-157.50660156 130.75419122 -157.50763305 127.28071898 -157.51501656 123.80711365 C-157.52268153 119.71608116 -157.51054682 115.6255713 -157.48316765 111.53462791 C-157.47628488 110.03383625 -157.47618474 108.53299576 -157.48338318 107.03220558 C-157.49208302 104.98204981 -157.4761168 102.93350506 -157.45393372 100.88348389 C-157.45112679 99.73681496 -157.44831987 98.59014603 -157.44542789 97.40872955 C-156.82970673 93.69463204 -155.53704103 92.0298491 -152.93927002 89.35552979 C-149.37700234 87.57439595 -145.71521805 88.46549008 -141.93927002 89.35552979 C-138.47026416 90.90412865 -135.32966926 92.88345745 -132.12677002 94.91802979 C-130.20250843 96.09889513 -128.27664301 97.27714978 -126.34942627 98.45318604 C-125.32478271 99.08240967 -124.30013916 99.7116333 -123.2444458 100.35992432 C-117.25304493 103.977424 -111.15397133 107.40699947 -105.06427002 110.85552979 C-102.73239484 112.17645529 -100.40189102 113.49970253 -98.07208252 114.82427979 C-97.08095459 115.3856665 -96.08982666 115.94705322 -95.06866455 116.52545166 C-91.30852683 118.72439006 -87.62128155 121.02881544 -83.93927002 123.35552979 C-83.93047066 122.19494301 -83.93047066 122.19494301 -83.92149353 121.01091003 C-83.86345281 113.69895255 -83.7913117 106.3873314 -83.70355511 99.07567501 C-83.65893587 95.31717535 -83.61966165 91.55878197 -83.59283447 87.80010986 C-83.56671648 84.16889676 -83.52625541 80.53809451 -83.47608376 76.90713692 C-83.45947214 75.5258046 -83.44792245 74.14440131 -83.44165611 72.76298332 C-83.37373099 59.15844212 -83.37373099 59.15844212 -79.93927002 53.35552979 C-76.33044642 49.92714736 -73.69072033 48.49025673 -68.68927002 48.10552979 C-60.23713499 48.66900545 -52.95958413 54.11009679 -45.81427002 58.29302979 C-43.6870263 59.53193015 -41.55940824 60.77018791 -39.43145752 62.00787354 C-38.29804932 62.6677124 -37.16464111 63.32755127 -35.99688721 64.00738525 C-27.67156003 68.83716813 -19.30041923 73.58813708 -10.93927002 78.35552979 C-10.93562439 77.43733459 -10.93197876 76.5191394 -10.92822266 75.57312012 C-10.89036009 66.92105632 -10.83352722 58.26937013 -10.75536728 49.61757278 C-10.71585351 45.16953299 -10.68368432 40.72169232 -10.66827393 36.27349854 C-10.6531328 31.98090454 -10.61873319 27.68885781 -10.570961 23.39650726 C-10.5561208 21.75870266 -10.54822749 20.12081993 -10.54738617 18.4829483 C-10.54502256 16.188905 -10.51799524 13.89638165 -10.48516846 11.6026001 C-10.47628601 10.29688049 -10.46740356 8.99116089 -10.45825195 7.64587402 C-9.93927002 4.35552979 -9.93927002 4.35552979 -8.14431763 1.93191528 C-5.43747573 -0.00320226 -3.292144 -0.1771954 0 0 Z " fill="#2C3590" transform="translate(168.93927001953125,8.64447021484375)"/>
<path d="M0 0 C4.064632 2.21720838 8.06420379 4.54072267 12.0625 6.875 C13.76297485 7.86234131 13.76297485 7.86234131 15.49780273 8.86962891 C19.00259503 10.90616387 22.50199563 12.9518329 26 15 C27.65515625 15.96873047 27.65515625 15.96873047 29.34375 16.95703125 C32.41875888 18.75949398 35.49145481 20.56579331 38.5625 22.375 C39.5016626 22.92784668 40.4408252 23.48069336 41.40844727 24.05029297 C42.69319946 24.81043701 42.69319946 24.81043701 44.00390625 25.5859375 C44.75486572 26.0298584 45.5058252 26.4737793 46.27954102 26.93115234 C48 28 48 28 49 29 C49.10385028 32.17865283 49.14156877 35.33585453 49.13803101 38.5151062 C49.14085229 39.52656491 49.14367357 40.53802363 49.14658034 41.5801326 C49.15496811 44.99727697 49.15626814 48.41438912 49.15771484 51.83154297 C49.16237995 54.27014254 49.167523 56.70874124 49.17311096 59.14733887 C49.18441483 64.41243327 49.19288865 69.67752127 49.19923019 74.94262314 C49.20953894 83.26077141 49.23009781 91.5788795 49.25234985 99.89700317 C49.25983009 102.74054514 49.26724374 105.58408728 49.27463722 108.42762947 C49.27648779 109.13831932 49.27833835 109.84900917 49.280245 110.58123507 C49.30118505 118.6767114 49.32000726 126.77219217 49.33789062 134.86767578 C49.33952881 135.60799581 49.34116699 136.34831584 49.34285481 137.11106981 C49.36914527 149.11084608 49.38778481 161.11062543 49.40448253 173.1104183 C49.42188809 185.41972586 49.45071725 197.72897281 49.4893719 210.03823197 C49.51280426 217.63659991 49.52676936 225.23486906 49.52869953 232.83327343 C49.53105332 238.65270615 49.54888897 244.47202512 49.57256889 250.29141235 C49.57979207 252.68317802 49.58184837 255.07496547 49.57846642 257.46673965 C49.57459787 260.72168498 49.58894149 263.97604684 49.60800171 267.23092651 C49.59970717 268.66422831 49.59970717 268.66422831 49.59124506 270.12648571 C49.6000849 270.99572425 49.60892474 271.8649628 49.61803246 272.76054192 C49.61938898 273.51222582 49.62074551 274.26390972 49.62214315 275.03837192 C50.11079985 277.57521278 50.9643852 278.44717367 53 280 C56.10839021 280.7269226 56.10839021 280.7269226 59 281 C57.02679204 283.83648644 55.71104302 284.06260735 52.25 284.8125 C45.41914241 285.77048612 39.59163351 282.464264 34 278.9375 C32.68238114 278.1274586 31.36467011 277.31756713 30.046875 276.5078125 C29.37849609 276.09305664 28.71011719 275.67830078 28.02148438 275.25097656 C24.78015997 273.24511349 21.51595083 271.27791466 18.25 269.3125 C17.68539062 268.96888428 17.12078125 268.62526855 16.5390625 268.27124023 C13.02144723 266.14752017 9.4530114 264.14453739 5.83984375 262.1875 C-0.40379183 258.80299462 -6.54561339 255.25246363 -12.6875 251.6875 C-19.70486812 247.62275176 -26.72492878 243.56647711 -33.8125 239.625 C-41.49976533 235.33689439 -49.09190451 230.88512566 -56.6875 226.4375 C-57.29961334 226.07964417 -57.91172668 225.72178833 -58.54238892 225.35308838 C-66.13638949 220.91107156 -73.66716041 216.38766154 -81.12231445 211.71582031 C-84.57450125 209.65745357 -88.11015395 207.9288872 -91.78125 206.30078125 C-94.77444078 204.54597046 -96.74948135 202.64998913 -99 200 C-99.62641239 196.94680023 -99.62641239 196.94680023 -99.62818909 193.4720459 C-99.63528347 192.83018388 -99.64237786 192.18832187 -99.64968723 191.52700949 C-99.66723951 189.38392701 -99.64918003 187.24266511 -99.63110352 185.09960938 C-99.63624348 183.56019771 -99.64352535 182.02079193 -99.65278625 180.48139954 C-99.67129899 176.30565151 -99.65836286 172.13054207 -99.63869596 167.95482063 C-99.62230691 163.58360174 -99.6311227 159.21242321 -99.63621521 154.84118652 C-99.64073589 147.50062869 -99.624868 140.1603257 -99.59692383 132.81982422 C-99.56487195 124.33490492 -99.56488769 115.85044523 -99.5821386 107.3654933 C-99.59800605 99.2010265 -99.59126875 91.03672811 -99.57420158 82.87226868 C-99.56733154 79.39866144 -99.56836303 75.9251892 -99.57574654 72.45158386 C-99.58341151 68.36055137 -99.5712768 64.27004151 -99.54389763 60.17909813 C-99.53701486 58.67830647 -99.53691472 57.17746598 -99.54411316 55.6766758 C-99.552813 53.62652002 -99.53684678 51.57797528 -99.5146637 49.5279541 C-99.51185678 48.38128517 -99.50904985 47.23461624 -99.50615788 46.05319977 C-98.89043671 42.33910226 -97.59777101 40.67431931 -95 38 C-91.43773232 36.21886616 -87.77594803 37.1099603 -84 38 C-80.53099414 39.54859887 -77.39039924 41.52792766 -74.1875 43.5625 C-72.26323841 44.74336535 -70.33737299 45.92162 -68.41015625 47.09765625 C-67.3855127 47.72687988 -66.36086914 48.35610352 -65.30517578 49.00439453 C-59.31377491 52.62189421 -53.21470131 56.05146968 -47.125 59.5 C-44.79312482 60.8209255 -42.462621 62.14417274 -40.1328125 63.46875 C-39.14168457 64.03013672 -38.15055664 64.59152344 -37.12939453 65.16992188 C-33.36925681 67.36886027 -29.68201153 69.67328566 -26 72 C-25.99120064 70.83941322 -25.99120064 70.83941322 -25.98222351 69.65538025 C-25.92418279 62.34342276 -25.85204168 55.03180162 -25.76428509 47.72014523 C-25.71966585 43.96164556 -25.68039163 40.20325218 -25.65356445 36.44458008 C-25.62744646 32.81336698 -25.58698539 29.18256473 -25.53681374 25.55160713 C-25.52020212 24.17027481 -25.50865243 22.78887152 -25.50238609 21.40745354 C-25.43446097 7.80291233 -25.43446097 7.80291233 -22 2 C-15.09833239 -4.55658423 -8.14738297 -4.06362395 0 0 Z " fill="#F48120" transform="translate(111,60)"/>
<path d="M0 0 C3.46900307 1.54859763 6.60965005 3.5278501 9.8125 5.5625 C11.73802806 6.74472436 13.66519726 7.92427872 15.59375 9.1015625 C16.61855469 9.73094727 17.64335938 10.36033203 18.69921875 11.00878906 C22.21787004 13.13143107 25.76981855 15.18334976 29.34375 17.2109375 C29.96448898 17.56310837 30.58522797 17.91527924 31.22477722 18.27812195 C33.68487538 19.67152778 36.14644895 21.06228434 38.60977173 22.44998169 C56.58716228 32.58716228 56.58716228 32.58716228 60 36 C60.09698498 38.18959038 60.12186727 40.3823753 60.12025452 42.57411194 C60.12110894 43.26917026 60.12196337 43.96422859 60.12284368 44.68034929 C60.12450049 47.02658986 60.11897387 49.37276008 60.11352539 51.71899414 C60.11324354 53.39399718 60.11340122 55.06900033 60.1139679 56.7440033 C60.11425594 61.30579279 60.10835814 65.86755623 60.10139394 70.42933965 C60.09516151 75.19129 60.09455669 79.9532409 60.09336853 84.7151947 C60.09025489 93.73915566 60.08204106 102.76310456 60.07201904 111.7870602 C60.06085893 122.05774487 60.05534771 132.32843009 60.05032361 142.59911931 C60.03985847 163.73275294 60.02225839 184.86637571 60 206 C56.14752891 204.75596923 52.84083573 203.48393743 49.41015625 201.328125 C45.61553121 198.98795258 41.79856878 196.70684214 37.93359375 194.484375 C36.87930176 193.87787109 35.82500977 193.27136719 34.73876953 192.64648438 C33.64935059 192.02064453 32.55993164 191.39480469 31.4375 190.75 C23.1347937 185.97075542 14.84060737 181.17938818 6.59667969 176.29931641 C3.55807527 174.50072509 0.5142685 172.71611213 -2.55859375 170.9765625 C-3.63238281 170.36554688 -4.70617187 169.75453125 -5.8125 169.125 C-6.72644531 168.61195313 -7.64039063 168.09890625 -8.58203125 167.5703125 C-11.19574143 165.87287875 -13.02342203 164.41980892 -15 162 C-15.50336456 159.06984806 -15.50336456 159.06984806 -15.50793457 155.59230042 C-15.52485352 153.61335785 -15.52485352 153.61335785 -15.54211426 151.59443665 C-15.53433713 150.13400049 -15.52614446 148.6735665 -15.51757812 147.21313477 C-15.52299876 145.67387225 -15.5301211 144.13461492 -15.53881836 142.59536743 C-15.55706336 138.41552058 -15.54997908 134.23606838 -15.53730202 130.05621457 C-15.52717856 125.6823172 -15.53656604 121.30845374 -15.54284668 116.93455505 C-15.55012577 109.58806286 -15.54052936 102.24173146 -15.52148438 94.89526367 C-15.49972317 86.40299189 -15.50676038 77.91110434 -15.52879 69.4188419 C-15.54694624 62.12783952 -15.549501 54.83695278 -15.53903532 47.54593509 C-15.53280056 43.19127572 -15.53196406 38.83679689 -15.54518127 34.48214912 C-15.55674219 30.38704716 -15.54871001 26.29244005 -15.52560425 22.19739151 C-15.52031804 20.69498071 -15.52182949 19.19252822 -15.53065491 17.69013405 C-15.54159881 15.63775623 -15.5278642 13.58696042 -15.50793457 11.53468323 C-15.50642647 10.38671548 -15.50491837 9.23874773 -15.50336456 8.05599308 C-14.89102112 4.33837478 -13.60022414 2.67578447 -11 0 C-7.43773232 -1.78113384 -3.77594803 -0.8900397 0 0 Z " fill="#2C3590" transform="translate(27,98)"/>
</svg>
